<svg width="621" height="146" viewBox="0 0 621 146" fill="none" xmlns="http://www.w3.org/2000/svg">
<path d="M50.16 116.72C43.84 116.72 38 115.68 32.64 113.6C27.28 111.44 22.64 108.44 18.72 104.6C14.8 100.76 11.72 96.24 9.48 91.04C7.32 85.84 6.24 80.16 6.24 74C6.24 67.84 7.32 62.16 9.48 56.96C11.72 51.76 14.8 47.24 18.72 43.4C22.72 39.56 27.4 36.6 32.76 34.52C38.12 32.36 43.96 31.28 50.28 31.28C56.36 31.28 62.08 32.32 67.44 34.4C72.8 36.4 77.32 39.44 81 43.52L75.36 49.16C71.92 45.64 68.12 43.12 63.96 41.6C59.8 40 55.32 39.2 50.52 39.2C45.48 39.2 40.8 40.08 36.48 41.84C32.16 43.52 28.4 45.96 25.2 49.16C22 52.28 19.48 55.96 17.64 60.2C15.88 64.36 15 68.96 15 74C15 79.04 15.88 83.68 17.64 87.92C19.48 92.08 22 95.76 25.2 98.96C28.4 102.08 32.16 104.52 36.48 106.28C40.8 107.96 45.48 108.8 50.52 108.8C55.32 108.8 59.8 108 63.96 106.4C68.12 104.8 71.92 102.24 75.36 98.72L81 104.36C77.32 108.44 72.8 111.52 67.44 113.6C62.08 115.68 56.32 116.72 50.16 116.72ZM120.998 116.6C114.918 116.6 109.438 115.24 104.558 112.52C99.7575 109.72 95.9575 105.92 93.1575 101.12C90.3575 96.24 88.9575 90.68 88.9575 84.44C88.9575 78.12 90.3575 72.56 93.1575 67.76C95.9575 62.96 99.7575 59.2 104.558 56.48C109.358 53.76 114.838 52.4 120.998 52.4C127.238 52.4 132.758 53.76 137.558 56.48C142.438 59.2 146.238 62.96 148.958 67.76C151.758 72.56 153.158 78.12 153.158 84.44C153.158 90.68 151.758 96.24 148.958 101.12C146.238 105.92 142.438 109.72 137.558 112.52C132.678 115.24 127.158 116.6 120.998 116.6ZM120.998 109.04C125.558 109.04 129.598 108.04 133.118 106.04C136.638 103.96 139.398 101.08 141.398 97.4C143.478 93.64 144.518 89.32 144.518 84.44C144.518 79.48 143.478 75.16 141.398 71.48C139.398 67.8 136.638 64.96 133.118 62.96C129.598 60.88 125.598 59.84 121.118 59.84C116.638 59.84 112.638 60.88 109.118 62.96C105.598 64.96 102.798 67.8 100.718 71.48C98.6375 75.16 97.5975 79.48 97.5975 84.44C97.5975 89.32 98.6375 93.64 100.718 97.4C102.798 101.08 105.598 103.96 109.118 106.04C112.638 108.04 116.598 109.04 120.998 109.04ZM202.712 52.4C207.832 52.4 212.312 53.4 216.152 55.4C220.072 57.32 223.112 60.28 225.272 64.28C227.512 68.28 228.632 73.32 228.632 79.4V116H220.112V80.24C220.112 73.6 218.432 68.6 215.072 65.24C211.792 61.8 207.152 60.08 201.152 60.08C196.672 60.08 192.752 61 189.392 62.84C186.112 64.6 183.552 67.2 181.712 70.64C179.952 74 179.072 78.08 179.072 82.88V116H170.552V53H178.712V70.28L177.392 67.04C179.392 62.48 182.592 58.92 186.992 56.36C191.392 53.72 196.632 52.4 202.712 52.4ZM278.406 116.6C271.846 116.6 266.086 115.24 261.126 112.52C256.166 109.72 252.286 105.92 249.486 101.12C246.686 96.24 245.286 90.68 245.286 84.44C245.286 78.2 246.606 72.68 249.246 67.88C251.966 63.08 255.646 59.32 260.286 56.6C265.006 53.8 270.286 52.4 276.126 52.4C282.046 52.4 287.286 53.76 291.846 56.48C296.486 59.12 300.126 62.88 302.766 67.76C305.406 72.56 306.726 78.12 306.726 84.44C306.726 84.84 306.686 85.28 306.606 85.76C306.606 86.16 306.606 86.6 306.606 87.08H251.766V80.72H302.046L298.686 83.24C298.686 78.68 297.686 74.64 295.686 71.12C293.766 67.52 291.126 64.72 287.766 62.72C284.406 60.72 280.526 59.72 276.126 59.72C271.806 59.72 267.926 60.72 264.486 62.72C261.046 64.72 258.366 67.52 256.446 71.12C254.526 74.72 253.566 78.84 253.566 83.48V84.8C253.566 89.6 254.606 93.84 256.686 97.52C258.846 101.12 261.806 103.96 265.566 106.04C269.406 108.04 273.766 109.04 278.646 109.04C282.486 109.04 286.046 108.36 289.326 107C292.686 105.64 295.566 103.56 297.966 100.76L302.766 106.28C299.966 109.64 296.446 112.2 292.206 113.96C288.046 115.72 283.446 116.6 278.406 116.6ZM350.228 116.6C343.988 116.6 338.388 115.24 333.428 112.52C328.548 109.72 324.708 105.92 321.908 101.12C319.108 96.24 317.708 90.68 317.708 84.44C317.708 78.12 319.108 72.56 321.908 67.76C324.708 62.96 328.548 59.2 333.428 56.48C338.388 53.76 343.988 52.4 350.228 52.4C355.588 52.4 360.428 53.44 364.748 55.52C369.068 57.6 372.468 60.72 374.948 64.88L368.588 69.2C366.428 66 363.748 63.64 360.548 62.12C357.348 60.6 353.868 59.84 350.108 59.84C345.628 59.84 341.588 60.88 337.988 62.96C334.388 64.96 331.548 67.8 329.468 71.48C327.388 75.16 326.348 79.48 326.348 84.44C326.348 89.4 327.388 93.72 329.468 97.4C331.548 101.08 334.388 103.96 337.988 106.04C341.588 108.04 345.628 109.04 350.108 109.04C353.868 109.04 357.348 108.28 360.548 106.76C363.748 105.24 366.428 102.92 368.588 99.8L374.948 104.12C372.468 108.2 369.068 111.32 364.748 113.48C360.428 115.56 355.588 116.6 350.228 116.6ZM412.308 116.6C406.388 116.6 401.828 115 398.628 111.8C395.428 108.6 393.828 104.08 393.828 98.24V39.08H402.348V97.76C402.348 101.44 403.268 104.28 405.108 106.28C407.028 108.28 409.748 109.28 413.268 109.28C417.028 109.28 420.148 108.2 422.628 106.04L425.628 112.16C423.948 113.68 421.908 114.8 419.508 115.52C417.188 116.24 414.788 116.6 412.308 116.6ZM382.548 60.08V53H421.548V60.08H382.548ZM465.671 116.6C459.111 116.6 453.351 115.24 448.391 112.52C443.431 109.72 439.551 105.92 436.751 101.12C433.951 96.24 432.551 90.68 432.551 84.44C432.551 78.2 433.871 72.68 436.511 67.88C439.231 63.08 442.911 59.32 447.551 56.6C452.271 53.8 457.551 52.4 463.391 52.4C469.311 52.4 474.551 53.76 479.111 56.48C483.751 59.12 487.391 62.88 490.031 67.76C492.671 72.56 493.991 78.12 493.991 84.44C493.991 84.84 493.951 85.28 493.871 85.76C493.871 86.16 493.871 86.6 493.871 87.08H439.031V80.72H489.311L485.951 83.24C485.951 78.68 484.951 74.64 482.951 71.12C481.031 67.52 478.391 64.72 475.031 62.72C471.671 60.72 467.791 59.72 463.391 59.72C459.071 59.72 455.191 60.72 451.751 62.72C448.311 64.72 445.631 67.52 443.711 71.12C441.791 74.72 440.831 78.84 440.831 83.48V84.8C440.831 89.6 441.871 93.84 443.951 97.52C446.111 101.12 449.071 103.96 452.831 106.04C456.671 108.04 461.031 109.04 465.911 109.04C469.751 109.04 473.311 108.36 476.591 107C479.951 105.64 482.831 103.56 485.231 100.76L490.031 106.28C487.231 109.64 483.711 112.2 479.471 113.96C475.311 115.72 470.711 116.6 465.671 116.6ZM538.093 116.6C531.533 116.6 525.773 115.24 520.813 112.52C515.853 109.72 511.973 105.92 509.173 101.12C506.373 96.24 504.973 90.68 504.973 84.44C504.973 78.2 506.293 72.68 508.933 67.88C511.653 63.08 515.333 59.32 519.973 56.6C524.693 53.8 529.973 52.4 535.813 52.4C541.733 52.4 546.973 53.76 551.533 56.48C556.173 59.12 559.813 62.88 562.453 67.76C565.093 72.56 566.413 78.12 566.413 84.44C566.413 84.84 566.373 85.28 566.293 85.76C566.293 86.16 566.293 86.6 566.293 87.08H511.453V80.72H561.733L558.373 83.24C558.373 78.68 557.373 74.64 555.373 71.12C553.453 67.52 550.813 64.72 547.453 62.72C544.093 60.72 540.213 59.72 535.813 59.72C531.493 59.72 527.613 60.72 524.173 62.72C520.733 64.72 518.053 67.52 516.133 71.12C514.213 74.72 513.253 78.84 513.253 83.48V84.8C513.253 89.6 514.293 93.84 516.373 97.52C518.533 101.12 521.493 103.96 525.253 106.04C529.093 108.04 533.453 109.04 538.333 109.04C542.173 109.04 545.733 108.36 549.013 107C552.373 105.64 555.253 103.56 557.653 100.76L562.453 106.28C559.653 109.64 556.133 112.2 551.893 113.96C547.733 115.72 543.133 116.6 538.093 116.6ZM583.755 116V53H591.915V70.16L591.075 67.16C592.835 62.36 595.795 58.72 599.955 56.24C604.115 53.68 609.275 52.4 615.435 52.4V60.68C615.115 60.68 614.795 60.68 614.475 60.68C614.155 60.6 613.835 60.56 613.515 60.56C606.875 60.56 601.675 62.6 597.915 66.68C594.155 70.68 592.275 76.4 592.275 83.84V116H583.755Z" fill="url(#paint0_linear_102_2)"/>
<defs>
<linearGradient id="paint0_linear_102_2" x1="0" y1="73" x2="621" y2="73" gradientUnits="userSpaceOnUse">
<stop stop-color="#3172FF"/>
<stop offset="0.475962" stop-color="#7C3AED"/>
<stop offset="1" stop-color="#C023FE"/>
</linearGradient>
</defs>
</svg>
